<svg xmlns="http://www.w3.org/2000/svg" viewBox="3230 1250 120 120"><defs><style>.cls-1{fill:#a4c639}.cls-2{fill:#fff}</style></defs><g id="Group_93" data-name="Group 93" transform="translate(3107 1147)"><circle id="Ellipse_69" cx="60" cy="60" r="60" class="cls-1" data-name="Ellipse 69" transform="translate(123 103)"/><g id="Group_92" data-name="Group 92" transform="translate(-109 75)"><rect id="Rectangle_44" width="10.059" height="31.549" class="cls-2" data-name="Rectangle 44" rx="5.03" transform="translate(257 73.52)"/><rect id="Rectangle_45" width="10.059" height="31.549" class="cls-2" data-name="Rectangle 45" rx="5.03" transform="translate(316.441 73.52)"/><path id="Rectangle_46" d="M0,0H45.724a0,0,0,0,1,0,0V32.408a6,6,0,0,1-6,6H6a6,6,0,0,1-6-6V0A0,0,0,0,1,0,0Z" class="cls-2" data-name="Rectangle 46" transform="translate(268.888 74.434)"/><path id="Rectangle_47" d="M0,0H10.059a0,0,0,0,1,0,0V11.888a5.03,5.03,0,0,1-5.03,5.03h0A5.03,5.03,0,0,1,0,11.888V0A0,0,0,0,1,0,0Z" class="cls-2" data-name="Rectangle 47" transform="translate(278.033 111.928)"/><path id="Rectangle_48" d="M0,0H10.059a0,0,0,0,1,0,0V11.888a5.03,5.03,0,0,1-5.03,5.03h0A5.03,5.03,0,0,1,0,11.888V0A0,0,0,0,1,0,0Z" class="cls-2" data-name="Rectangle 48" transform="translate(295.408 111.928)"/><path id="Path_206" d="M22.883.25c12.5,0,22.633,9.478,22.633,21.17H.25C.25,9.728,10.383.25,22.883.25Z" class="cls-2" data-name="Path 206" transform="translate(268.867 51.551)"/><circle id="Ellipse_70" cx="2.058" cy="2.058" r="2.058" class="cls-1" data-name="Ellipse 70" transform="translate(279.13 60.717)"/><circle id="Ellipse_71" cx="2.058" cy="2.058" r="2.058" class="cls-1" data-name="Ellipse 71" transform="translate(300.163 60.717)"/><rect id="Rectangle_49" width="1.372" height="9.145" class="cls-2" data-name="Rectangle 49" rx=".686" transform="matrix(0.875, -0.485, 0.485, 0.875, 276.753, 47.665)"/><rect id="Rectangle_50" width="1.372" height="9.145" class="cls-2" data-name="Rectangle 50" rx=".686" transform="translate(305.605 47) rotate(31)"/></g></g></svg>