<svg xmlns="http://www.w3.org/2000/svg" viewBox="2922 786 120 120"><defs><style>.cls-1{fill:#c8c8c8}.cls-2{fill:#fff}</style></defs><g id="Group_32" data-name="Group 32" transform="translate(2602 291)"><circle id="Ellipse_17" cx="60" cy="60" r="60" class="cls-1" data-name="Ellipse 17" transform="translate(320 495)"/><g id="Group_31" data-name="Group 31" transform="translate(179 179.1)"><path id="Path_122" d="M623.222,94.309S609.4,79.17,610.2,61.817s12.939-22.045,12.939-22.045A16.749,16.749,0,0,1,631.5,38a22.864,22.864,0,0,1,7.143,1.594c3.615,1.454,4.507,1.9,7.494,1.895,3.533-.006,6.046-1.681,9.257-2.645a25.088,25.088,0,0,1,6.3-.844,18.273,18.273,0,0,1,6.249,1.594,25.033,25.033,0,0,1,8.1,6.552,17.35,17.35,0,0,0-8.8,16.556c.88,11.155,11.257,15.245,11.257,15.245A70.758,70.758,0,0,1,667.76,94.575a11.3,11.3,0,0,1-8.274,4.515c-2.1.127-4.489-.8-7.218-2.125a16.273,16.273,0,0,0-6.425-1.239,13.185,13.185,0,0,0-4.753.62c-2.112.8-7.026,3.065-9.418,2.745A14.019,14.019,0,0,1,623.222,94.309Z" class="cls-2" data-name="Path 122" transform="translate(-443.163 316.54)"/><path id="Path_123" d="M647.683,36.118s-1.239-6.107,3.983-12.48A18.153,18.153,0,0,1,663.969,17,18.339,18.339,0,0,1,659.9,30.188,14.914,14.914,0,0,1,647.683,36.118Z" class="cls-2" data-name="Path 123" transform="translate(-447.409 318.9)"/></g></g></svg>